<svg xmlns="http://www.w3.org/2000/svg" viewBox="0 0 360 220" role="img" aria-label="Maximum aggregate size compared with the clear spacing between bars and the cover"><title>Maximum aggregate size compared with the clear spacing between bars and the cover</title><g fill="none" stroke="currentColor" stroke-width="1.5" stroke-linecap="round" stroke-linejoin="round"><rect x="10" y="26" width="340" height="144" style="fill:var(--grid);stroke:none"/><path d="M10 170L350 170"/><circle cx="80" cy="120" r="16" fill="currentColor"/><circle cx="180" cy="120" r="16" fill="currentColor"/><circle cx="280" cy="120" r="16" fill="currentColor"/><path d="M30 45L48 38L56 54L38 60Z" stroke-width="1.2"/><path d="M115 40L134 44L130 62L112 58Z" stroke-width="1.2"/><path d="M200 48L222 42L226 62L206 66Z" stroke-width="1.2"/><path d="M300 40L320 46L314 64L296 58Z" stroke-width="1.2"/><path d="M150 70L164 66L168 80L152 84Z" stroke-width="1.2"/><path d="M250 76L262 72L266 86L252 88Z" stroke-width="1.2"/><path d="M130 150L142 146L146 158L132 160Z" stroke-width="1.2"/><path d="M30 138L44 134L48 148L34 152Z" stroke-width="1.2"/><path d="M320 140L334 136L336 150L322 154Z" stroke-width="1.2"/><path d="M216 112L232 104L245 116L238 134L220 132Z" style="stroke:var(--series-1)"/><path d="M220 94L241 94" style="stroke:var(--series-1)"/><path d="M245 94L240 96.2L240 91.8Z" style="fill:var(--series-1);stroke:none"/><path d="M216 94L221 91.8L221 96.2Z" style="fill:var(--series-1);stroke:none"/><path d="M100 120L160 120" style="stroke:var(--series-1)"/><path d="M164 120L159 122.2L159 117.8Z" style="fill:var(--series-1);stroke:none"/><path d="M96 120L101 117.8L101 122.2Z" style="fill:var(--series-1);stroke:none"/><path d="M80 140L80 166" style="stroke:var(--series-1)"/><path d="M80 170L77.8 165L82.2 165Z" style="fill:var(--series-1);stroke:none"/><path d="M80 136L82.2 141L77.8 141Z" style="fill:var(--series-1);stroke:none"/></g><g fill="currentColor" font-size="11" font-family="inherit"><text x="230" y="86" text-anchor="middle">max size</text><text x="130" y="107" text-anchor="middle">clear spacing</text><text x="86" y="160">cover</text><text x="180" y="192" text-anchor="middle">largest stone must pass between bars</text><text x="180" y="208" text-anchor="middle">and into the cover zone</text></g></svg>
