<svg xmlns="http://www.w3.org/2000/svg" viewBox="0 0 360 220" role="img" aria-label="Concrete repair: saw-cut edge, concrete removed behind the bar, bar cleaned, repair mortar placed"><title>Concrete repair: saw-cut edge, concrete removed behind the bar, bar cleaned, repair mortar placed</title><g fill="none" stroke="currentColor" stroke-width="1.5" stroke-linecap="round" stroke-linejoin="round"><rect x="20" y="40" width="320" height="120" style="fill:var(--grid);stroke:none"/><path d="M20 40L340 40"/><path d="M110 40V52Q112 112 180 112Q248 112 250 52V40Z" style="fill:var(--series-1);fill-opacity:.15;stroke:var(--series-1)"/><circle cx="180" cy="80" r="8" fill="currentColor"/><circle cx="180" cy="80" r="12" style="stroke:var(--series-1)" stroke-width="1" stroke-dasharray="2 2"/><path d="M180 91L180 109" style="stroke:var(--series-1)"/><path d="M180 112L178.2 108L181.8 108Z" style="fill:var(--series-1);stroke:none"/><path d="M180 88L181.8 92L178.2 92Z" style="fill:var(--series-1);stroke:none"/><path d="M110 46L104 24" stroke-width="1"/><circle cx="110" cy="46" r="1.8" fill="currentColor" stroke="none"/><path d="M140 60L150 24" stroke-width="1"/><circle cx="140" cy="60" r="1.8" fill="currentColor" stroke="none"/><path d="M190 74L262 24" stroke-width="1"/><circle cx="190" cy="74" r="1.8" fill="currentColor" stroke="none"/><path d="M180 112L180 176" stroke-width="1"/><circle cx="180" cy="112" r="1.8" fill="currentColor" stroke="none"/></g><g fill="currentColor" font-size="11" font-family="inherit"><text x="101" y="28" text-anchor="end">saw-cut edge</text><text x="153" y="28">repair mortar</text><text x="265" y="28">bar cleaned</text><text x="180" y="188" text-anchor="middle">clearance behind bar</text><text x="60" y="140" text-anchor="middle">sound concrete</text><text x="180" y="206" text-anchor="middle">remove to sound concrete, then patch</text></g></svg>
