<svg xmlns="http://www.w3.org/2000/svg" viewBox="0 0 360 220" role="img" aria-label="Deck fastening in plan: support welds or screws at each beam, side-lap fasteners along the sheet edges"><title>Deck fastening in plan: support welds or screws at each beam, side-lap fasteners along the sheet edges</title><g fill="none" stroke="currentColor" stroke-width="1.5" stroke-linecap="round" stroke-linejoin="round"><path d="M20 37H340M20 51H340M20 65H340M20 79H340M20 93H340M20 107H340M20 121H340M20 135H340M20 149H340M20 163H340" stroke-width="1"/><path d="M20 100L340 100" stroke-width="2"/><path d="M20 30L340 30" stroke-width="2"/><path d="M20 170L340 170" stroke-width="2"/><rect x="74" y="26" width="12" height="148" style="stroke:var(--series-1)" stroke-width="1" stroke-dasharray="4 3"/><circle cx="80" cy="37" r="3.5" style="fill:var(--series-1);stroke:none"/><circle cx="80" cy="65" r="3.5" style="fill:var(--series-1);stroke:none"/><circle cx="80" cy="93" r="3.5" style="fill:var(--series-1);stroke:none"/><circle cx="80" cy="107" r="3.5" style="fill:var(--series-1);stroke:none"/><circle cx="80" cy="135" r="3.5" style="fill:var(--series-1);stroke:none"/><circle cx="80" cy="163" r="3.5" style="fill:var(--series-1);stroke:none"/><rect x="274" y="26" width="12" height="148" style="stroke:var(--series-1)" stroke-width="1" stroke-dasharray="4 3"/><circle cx="280" cy="37" r="3.5" style="fill:var(--series-1);stroke:none"/><circle cx="280" cy="65" r="3.5" style="fill:var(--series-1);stroke:none"/><circle cx="280" cy="93" r="3.5" style="fill:var(--series-1);stroke:none"/><circle cx="280" cy="107" r="3.5" style="fill:var(--series-1);stroke:none"/><circle cx="280" cy="135" r="3.5" style="fill:var(--series-1);stroke:none"/><circle cx="280" cy="163" r="3.5" style="fill:var(--series-1);stroke:none"/><path d="M126 96l8 8M134 96l-8 8" style="stroke:var(--series-1)" stroke-width="2"/><path d="M176 96l8 8M184 96l-8 8" style="stroke:var(--series-1)" stroke-width="2"/><path d="M226 96l8 8M234 96l-8 8" style="stroke:var(--series-1)" stroke-width="2"/><circle cx="28" cy="190" r="3.5" style="fill:var(--series-1);stroke:none"/><path d="M226 186l8 8M234 186l-8 8" style="stroke:var(--series-1)" stroke-width="2"/></g><g fill="currentColor" font-size="11" font-family="inherit"><text x="80" y="20" text-anchor="middle">beam</text><text x="280" y="20" text-anchor="middle">beam</text><text x="38" y="194">weld / screw at support</text><text x="242" y="194">side-lap</text><text x="180" y="212" text-anchor="middle">pattern and spacing as specified</text></g></svg>
