<svg xmlns="http://www.w3.org/2000/svg" viewBox="0 0 360 220" role="img" aria-label="Drainage composite against a basement wall, with filter fabric, draining to a perforated footing drain"><title>Drainage composite against a basement wall, with filter fabric, draining to a perforated footing drain</title><g fill="none" stroke="currentColor" stroke-width="1.5" stroke-linecap="round" stroke-linejoin="round"><rect x="20" y="30" width="138" height="180" style="fill:var(--grid);stroke:none"/><path d="M20 30L20 30M34 30L20 44M48 30L20 58M62 30L20 72M76 30L20 86M90 30L20 100M104 30L20 114M118 30L20 128M132 30L20 142M146 30L20 156M158 32L20 170M158 46L20 184M158 60L20 198M158 74L22 210M158 88L36 210M158 102L50 210M158 116L64 210M158 130L78 210M158 144L92 210M158 158L106 210M158 172L120 210M158 186L134 210M158 200L148 210" stroke-width="0.8"/><path d="M20 30L158 30"/><path d="M26 30l-6 6M36 30l-6 6M46 30l-6 6M56 30l-6 6M66 30l-6 6M76 30l-6 6M86 30l-6 6M96 30l-6 6M106 30l-6 6M116 30l-6 6M126 30l-6 6M136 30l-6 6M146 30l-6 6M156 30l-6 6" stroke-width="1"/><rect x="180" y="30" width="30" height="140" style="fill:var(--grid)"/><rect x="150" y="170" width="110" height="25" style="fill:var(--grid)"/><path d="M176 36l-6 5l6 5l-6 5l6 5l-6 5l6 5l-6 5l6 5l-6 5l6 5l-6 5l6 5l-6 5l6 5l-6 5l6 5l-6 5l6 5l-6 5l6 5l-6 5l6 5l-6 5l6 5l-6 5l6 5" stroke-width="1.2"/><path d="M166 32L166 168" style="stroke:var(--series-1)" stroke-width="2" stroke-dasharray="4 3"/><path d="M80 70L153 70" style="stroke:var(--series-1)"/><path d="M158 70L152 72.7L152 67.3Z" style="fill:var(--series-1);stroke:none"/><path d="M160 90L160 155" style="stroke:var(--series-1)"/><path d="M160 160L157.3 154L162.7 154Z" style="fill:var(--series-1);stroke:none"/><circle cx="118" cy="172" r="2.5" stroke-width="1"/><circle cx="136" cy="170" r="2.5" stroke-width="1"/><circle cx="116" cy="194" r="2.5" stroke-width="1"/><circle cx="140" cy="194" r="2.5" stroke-width="1"/><circle cx="128" cy="162" r="2.5" stroke-width="1"/><circle cx="128" cy="183" r="9" stroke-width="2"/><circle cx="128" cy="183" r="18" style="stroke:var(--series-1)" stroke-width="1.2" stroke-dasharray="3 3"/><path d="M172 60L222 50" stroke-width="1"/><circle cx="172" cy="60" r="1.8" fill="currentColor" stroke="none"/><path d="M166 110L222 100" stroke-width="1"/><circle cx="166" cy="110" r="1.8" fill="currentColor" stroke="none"/><path d="M128 192L150 208" stroke-width="1"/><circle cx="128" cy="192" r="1.8" fill="currentColor" stroke="none"/></g><g fill="currentColor" font-size="11" font-family="inherit"><text x="70" y="22" text-anchor="middle">water</text><text x="225" y="54">drainage composite</text><text x="225" y="104">filter fabric</text><text x="153" y="212">perforated drain</text><text x="262" y="150">wall</text></g></svg>
