<svg xmlns="http://www.w3.org/2000/svg" viewBox="0 0 360 220" role="img" aria-label="Quay fender system: rubber fender unit, frontal panel with low-friction pads, and restraint chains"><title>Quay fender system: rubber fender unit, frontal panel with low-friction pads, and restraint chains</title><g fill="none" stroke="currentColor" stroke-width="1.5" stroke-linecap="round" stroke-linejoin="round"><rect x="20" y="120" width="320" height="80" style="fill:var(--series-1);fill-opacity:.15;stroke:none"/><path d="M120 120q3.5 -2.5 7 0t7 0q3.5 -2.5 7 0t7 0q3.5 -2.5 7 0t7 0q3.5 -2.5 7 0t7 0q3.5 -2.5 7 0t7 0q3.5 -2.5 7 0t7 0q3.5 -2.5 7 0t7 0q3.5 -2.5 7 0t7 0q3.5 -2.5 7 0t7 0q3.5 -2.5 7 0t7 0q3.5 -2.5 7 0t7 0q3.5 -2.5 7 0t7 0q3.5 -2.5 7 0t7 0q3.5 -2.5 7 0t7 0q3.5 -2.5 7 0t7 0q3.5 -2.5 7 0t7 0" style="stroke:var(--series-1)"/><rect x="20" y="40" width="100" height="160" style="fill:var(--grid)"/><path d="M120 66L160 76L160 104L120 114" stroke-width="2"/><rect x="160" y="50" width="12" height="80" style="fill:var(--grid)"/><rect x="172" y="52" width="3" height="76" style="fill:var(--series-1);stroke:none"/><path d="M164 50L120 44" stroke-dasharray="3 2"/><path d="M164 130L120 150" stroke-dasharray="3 2"/><path d="M320 30Q190 50 180 95Q176 140 200 200"/><path d="M240 100L201 100" style="stroke:var(--series-1)"/><path d="M196 100L202 97.3L202 102.7Z" style="fill:var(--series-1);stroke:none"/><path d="M166 50L190 24" stroke-width="1"/><circle cx="166" cy="50" r="1.8" fill="currentColor" stroke="none"/><path d="M140 47L110 24" stroke-width="1"/><circle cx="140" cy="47" r="1.8" fill="currentColor" stroke="none"/><path d="M140 100L108 146" stroke-width="1"/><circle cx="140" cy="100" r="1.8" fill="currentColor" stroke="none"/></g><g fill="currentColor" font-size="11" font-family="inherit"><text x="262" y="64">ship hull</text><text x="250" y="104">berthing</text><text x="70" y="90" text-anchor="middle">quay</text><text x="193" y="28">frontal panel</text><text x="107" y="28" text-anchor="end">chains</text><text x="105" y="150" text-anchor="end">rubber fender</text></g></svg>
