<svg xmlns="http://www.w3.org/2000/svg" viewBox="0 0 360 220" role="img" aria-label="Form ties: tie with cones through the wall, cones removed after stripping, holes patched"><title>Form ties: tie with cones through the wall, cones removed after stripping, holes patched</title><g fill="none" stroke="currentColor" stroke-width="1.5" stroke-linecap="round" stroke-linejoin="round"><rect x="40" y="40" width="40" height="110" style="fill:var(--grid)"/><rect x="32" y="34" width="8" height="122"/><rect x="80" y="34" width="8" height="122"/><path d="M40 89L50 92L50 98L40 101Z" stroke-width="1.2"/><path d="M80 89L70 92L70 98L80 101Z" stroke-width="1.2"/><path d="M24 95L96 95" style="stroke:var(--series-1)" stroke-width="2"/><path d="M160 40H200V89L190 92V98L200 101V150H160V101L170 98V92L160 89Z" style="fill:var(--grid)"/><path d="M170 95L190 95" style="stroke:var(--series-1)" stroke-width="2"/><path d="M280 40H320V89L310 92V98L320 101V150H280V101L290 98V92L280 89Z" style="fill:var(--grid)"/><path d="M290 95L310 95" style="stroke:var(--series-1)" stroke-width="2"/><path d="M280 89L290 92V98L280 101ZM320 89L310 92V98L320 101Z" style="fill:var(--series-1);fill-opacity:.15;stroke:var(--series-1)"/><path d="M98 95L137 95" fill="currentColor"/><path d="M142 95L136 97.7L136 92.3Z" fill="currentColor" stroke="none"/><path d="M218 95L257 95" fill="currentColor"/><path d="M262 95L256 97.7L256 92.3Z" fill="currentColor" stroke="none"/></g><g fill="currentColor" font-size="11" font-family="inherit"><text x="60" y="176" text-anchor="middle">tie + cones</text><text x="180" y="176" text-anchor="middle">cones removed</text><text x="300" y="176" text-anchor="middle">holes patched</text><text x="180" y="204" text-anchor="middle">tie ends broken back behind the face</text></g></svg>
