<svg xmlns="http://www.w3.org/2000/svg" viewBox="0 0 360 220" role="img" aria-label="Hollow-core plank: section with cores and topping, and end bearing on a support"><title>Hollow-core plank: section with cores and topping, and end bearing on a support</title><g fill="none" stroke="currentColor" stroke-width="1.5" stroke-linecap="round" stroke-linejoin="round"><rect x="20" y="72" width="150" height="16" style="fill:var(--grid)"/><path d="M20 80L170 80" stroke-width="1" stroke-dasharray="4 3"/><path d="M20 88H170V138H20ZM26 113a13 17 0 1 0 26 0a13 17 0 1 0 -26 0ZM63 113a13 17 0 1 0 26 0a13 17 0 1 0 -26 0ZM101 113a13 17 0 1 0 26 0a13 17 0 1 0 -26 0ZM138 113a13 17 0 1 0 26 0a13 17 0 1 0 -26 0Z" fill-rule="evenodd" style="fill:var(--grid)"/><path d="M60 80L70 52" stroke-width="1"/><circle cx="60" cy="80" r="1.8" fill="currentColor" stroke="none"/><path d="M114 113L140 160" stroke-width="1"/><circle cx="114" cy="113" r="1.8" fill="currentColor" stroke="none"/><rect x="290" y="120" width="40" height="80" style="fill:var(--grid)"/><rect x="200" y="74" width="145" height="16" style="fill:var(--grid)"/><rect x="200" y="90" width="120" height="30" style="fill:var(--grid)"/><path d="M200 98H320M200 112H320" stroke-width="1" stroke-dasharray="6 4"/><rect x="294" y="120" width="26" height="3" style="fill:var(--series-1);stroke:none"/><path d="M294 136L316 136" style="stroke:var(--series-1)"/><path d="M320 136L315 138.2L315 133.8Z" style="fill:var(--series-1);stroke:none"/><path d="M290 136L295 133.8L295 138.2Z" style="fill:var(--series-1);stroke:none"/></g><g fill="currentColor" font-size="11" font-family="inherit"><text x="95" y="30" text-anchor="middle" font-weight="600">section</text><text x="270" y="30" text-anchor="middle" font-weight="600">end bearing</text><text x="73" y="56">topping</text><text x="143" y="164">cores</text><text x="284" y="140" text-anchor="end">bearing length</text></g></svg>
