<svg xmlns="http://www.w3.org/2000/svg" viewBox="0 0 360 220" role="img" aria-label="Mechanical coupler joining two bars end to end instead of a lap"><title>Mechanical coupler joining two bars end to end instead of a lap</title><g fill="none" stroke="currentColor" stroke-width="1.5" stroke-linecap="round" stroke-linejoin="round"><rect x="20" y="102" width="160" height="16" style="fill:var(--grid);stroke:none"/><path d="M30 102l-6 16M40 102l-6 16M50 102l-6 16M60 102l-6 16M70 102l-6 16M80 102l-6 16M90 102l-6 16M100 102l-6 16M110 102l-6 16M120 102l-6 16M130 102l-6 16M140 102l-6 16M150 102l-6 16M160 102l-6 16M170 102l-6 16" stroke-width="1"/><rect x="20" y="102" width="160" height="16"/><rect x="180" y="102" width="160" height="16" style="fill:var(--grid);stroke:none"/><path d="M190 102l-6 16M200 102l-6 16M210 102l-6 16M220 102l-6 16M230 102l-6 16M240 102l-6 16M250 102l-6 16M260 102l-6 16M270 102l-6 16M280 102l-6 16M290 102l-6 16M300 102l-6 16M310 102l-6 16M320 102l-6 16M330 102l-6 16" stroke-width="1"/><rect x="180" y="102" width="160" height="16"/><rect x="140" y="92" width="80" height="36" style="fill:var(--grid)"/><path d="M146 94v32M152 94v32M158 94v32M164 94v32M170 94v32M176 94v32M182 94v32M188 94v32M194 94v32M200 94v32M206 94v32M212 94v32" style="stroke:var(--series-1)" stroke-width="1"/><rect x="140" y="92" width="80" height="36" style="stroke:var(--series-1)" stroke-width="2"/><path d="M180 96L180 124" stroke-width="1" stroke-dasharray="2 2"/></g><g fill="currentColor" font-size="11" font-family="inherit"><text x="80" y="90" text-anchor="middle">bar</text><text x="280" y="90" text-anchor="middle">bar</text><text x="180" y="150" text-anchor="middle" font-weight="600">threaded coupler</text><text x="180" y="182" text-anchor="middle">no lap length needed</text><text x="180" y="198" text-anchor="middle">type tested to develop the bar</text></g></svg>
