<svg xmlns="http://www.w3.org/2000/svg" viewBox="0 0 360 220" role="img" aria-label="Sheet membrane: overlapped laps on primed substrate, and a termination bar with sealant at the top edge"><title>Sheet membrane: overlapped laps on primed substrate, and a termination bar with sealant at the top edge</title><g fill="none" stroke="currentColor" stroke-width="1.5" stroke-linecap="round" stroke-linejoin="round"><rect x="20" y="112" width="160" height="30" style="fill:var(--grid)"/><path d="M20 110L130 110" style="stroke:var(--series-1)" stroke-width="3"/><path d="M90 105.5H130L136 110H180" style="stroke:var(--series-1)" stroke-width="3"/><path d="M90 70L90 100" stroke-width="1" stroke-dasharray="3 3"/><path d="M130 70L130 100" stroke-width="1" stroke-dasharray="3 3"/><path d="M94 80L126 80" style="stroke:var(--series-1)"/><path d="M130 80L125 82.2L125 77.8Z" style="fill:var(--series-1);stroke:none"/><path d="M90 80L95 77.8L95 82.2Z" style="fill:var(--series-1);stroke:none"/><path d="M50 112L40 170" stroke-width="1"/><circle cx="50" cy="112" r="1.8" fill="currentColor" stroke="none"/><path d="M150 110L160 170" stroke-width="1"/><circle cx="150" cy="110" r="1.8" fill="currentColor" stroke="none"/><rect x="200" y="50" width="30" height="150" style="fill:var(--grid)"/><rect x="230" y="180" width="110" height="20" style="fill:var(--grid)"/><path d="M340 178H232V92" style="stroke:var(--series-1)" stroke-width="3"/><rect x="233" y="92" width="5" height="22" fill="currentColor"/><circle cx="235" cy="98" r="1.2" style="fill:var(--series-1);stroke:none"/><circle cx="235" cy="108" r="1.2" style="fill:var(--series-1);stroke:none"/><path d="M232 91q8 0 8 -8v-2h-8Z" style="fill:var(--series-1);stroke:none"/><path d="M240 84L256 70" stroke-width="1"/><circle cx="240" cy="84" r="1.8" fill="currentColor" stroke="none"/><path d="M238 104L256 102" stroke-width="1"/><circle cx="238" cy="104" r="1.8" fill="currentColor" stroke="none"/><path d="M232 140L256 140" stroke-width="1"/><circle cx="232" cy="140" r="1.8" fill="currentColor" stroke="none"/></g><g fill="currentColor" font-size="11" font-family="inherit"><text x="100" y="40" text-anchor="middle" font-weight="600">lap</text><text x="280" y="40" text-anchor="middle" font-weight="600">termination</text><text x="110" y="72" text-anchor="middle">lap width</text><text x="40" y="182" text-anchor="middle">primer</text><text x="160" y="182" text-anchor="middle">membrane</text><text x="259" y="74">sealant</text><text x="259" y="106">termination bar</text><text x="259" y="144">membrane</text></g></svg>
