<svg xmlns="http://www.w3.org/2000/svg" viewBox="0 0 360 220" role="img" aria-label="Stair parts: stringer, treads, risers, nosing and landing, with riser height and going"><title>Stair parts: stringer, treads, risers, nosing and landing, with riser height and going</title><g fill="none" stroke="currentColor" stroke-width="1.5" stroke-linecap="round" stroke-linejoin="round"><path d="M80 190L230 90L240 90L240 99.3L86 202Z" style="fill:var(--grid)"/><path d="M20 190L80 190L80 170L110 170L110 150L140 150L140 130L170 130L170 110L200 110L200 90L230 90L230 70L340 70" stroke-width="2"/><path d="M76 170L110 170" style="stroke:var(--series-1)" stroke-width="3"/><path d="M106 150L140 150" style="stroke:var(--series-1)" stroke-width="3"/><path d="M136 130L170 130" style="stroke:var(--series-1)" stroke-width="3"/><path d="M166 110L200 110" style="stroke:var(--series-1)" stroke-width="3"/><path d="M196 90L230 90" style="stroke:var(--series-1)" stroke-width="3"/><rect x="226" y="70" width="114" height="10" style="fill:var(--grid)"/><path d="M226 70L340 70" style="stroke:var(--series-1)" stroke-width="3"/><path d="M132 146L132 134" style="stroke:var(--series-1)"/><path d="M132 130L134.2 135L129.8 135Z" style="fill:var(--series-1);stroke:none"/><path d="M132 150L129.8 145L134.2 145Z" style="fill:var(--series-1);stroke:none"/><path d="M144 120L166 120" style="stroke:var(--series-1)"/><path d="M170 120L165 122.2L165 117.8Z" style="fill:var(--series-1);stroke:none"/><path d="M140 120L145 117.8L145 122.2Z" style="fill:var(--series-1);stroke:none"/><path d="M76 170L56 146" stroke-width="1"/><circle cx="76" cy="170" r="1.8" fill="currentColor" stroke="none"/><path d="M150 164L190 180" stroke-width="1"/><circle cx="150" cy="164" r="1.8" fill="currentColor" stroke="none"/><path d="M122 150L96 116" stroke-width="1"/><circle cx="122" cy="150" r="1.8" fill="currentColor" stroke="none"/></g><g fill="currentColor" font-size="11" font-family="inherit"><text x="126" y="144" text-anchor="end">riser</text><text x="152" y="112" text-anchor="middle">going</text><text x="53" y="150" text-anchor="end">nosing</text><text x="193" y="184">stringer</text><text x="93" y="120" text-anchor="end">tread</text><text x="285" y="62" text-anchor="middle">landing</text></g></svg>
