<svg xmlns="http://www.w3.org/2000/svg" viewBox="0 0 360 220" role="img" aria-label="Strength class C30/37: 30 MPa cylinder strength and 37 MPa cube strength of the same concrete"><title>Strength class C30/37: 30 MPa cylinder strength and 37 MPa cube strength of the same concrete</title><g fill="none" stroke="currentColor" stroke-width="1.5" stroke-linecap="round" stroke-linejoin="round"><path d="M172 42L108.3 81.4" style="stroke:var(--series-1)"/><path d="M104 84L107.7 78.5L110.5 83.1Z" style="fill:var(--series-1);stroke:none"/><path d="M192 42L251.8 81.3" style="stroke:var(--series-1)"/><path d="M256 84L249.5 83L252.5 78.5Z" style="fill:var(--series-1);stroke:none"/><path d="M70 95V165A20 5 0 0 0 110 165V95" style="fill:var(--grid)"/><ellipse cx="90" cy="95" rx="20" ry="5" style="fill:var(--grid)"/><path d="M240 110L290 110L290 160L240 160Z" style="fill:var(--grid)"/><path d="M240 110L252 100L302 100L302 150L290 160" style="fill:var(--grid)"/><path d="M290 110L302 100"/></g><g fill="currentColor" font-size="11" font-family="inherit"><text x="180" y="34" text-anchor="middle" font-size="12" font-weight="600">C30/37</text><text x="90" y="190" text-anchor="middle" font-weight="600">cylinder: 30 MPa</text><text x="270" y="190" text-anchor="middle" font-weight="600">cube: 37 MPa</text><text x="180" y="125" text-anchor="middle">characteristic</text><text x="180" y="139" text-anchor="middle">strength</text><text x="180" y="212" text-anchor="middle">same concrete, two specimen shapes</text></g></svg>
