<svg xmlns="http://www.w3.org/2000/svg" viewBox="0 0 360 220" role="img" aria-label="Submittal flow: contractor submits, engineer reviews and marks an action, the submittal is returned"><title>Submittal flow: contractor submits, engineer reviews and marks an action, the submittal is returned</title><g fill="none" stroke="currentColor" stroke-width="1.5" stroke-linecap="round" stroke-linejoin="round"><rect x="20" y="40" width="100" height="40" rx="4" style="fill:var(--grid)"/><rect x="240" y="40" width="100" height="40" rx="4" style="fill:var(--grid)"/><path d="M120 58L235 58" style="stroke:var(--series-1)"/><path d="M240 58L234 60.7L234 55.3Z" style="fill:var(--series-1);stroke:none"/><path d="M290 80L290 91" style="stroke:var(--series-1)"/><path d="M290 96L287.3 90L292.7 90Z" style="fill:var(--series-1);stroke:none"/><rect x="200" y="96" width="145" height="84" rx="4"/><path d="M200 138H100V86" style="stroke:var(--series-1)"/><path d="M100 81L102.7 87L97.3 87Z" style="fill:var(--series-1);stroke:none"/><path d="M40 80L40 171" fill="currentColor"/><path d="M40 176L37.3 170L42.7 170Z" fill="currentColor" stroke="none"/></g><g fill="currentColor" font-size="11" font-family="inherit"><text x="70" y="64" text-anchor="middle" font-weight="600">contractor</text><text x="290" y="64" text-anchor="middle" font-weight="600">engineer</text><text x="180" y="50" text-anchor="middle">submit</text><text x="212" y="116">approved</text><text x="212" y="133">approved as noted</text><text x="212" y="150">revise and resubmit</text><text x="212" y="167">rejected</text><text x="150" y="132" text-anchor="middle">return</text><text x="20" y="196">proceed when approved</text></g></svg>
